#!OML:ASF F:\VICON\USERDATA\INSTALL\rory3\rory3.ASF
:FULLY-SPECIFIED
:DEGREES
97
root 3.18594 16.5046 6.51504 -48.9025 -73.4875 74.6286
lowerback -1.52211 -1.29772 1.63148
upperback -4.06648 -1.73325 5.17141
thorax -3.22755 -0.890252 4.46245
lowerneck -9.86975 0.229409 4.40459
upperneck 38.3549 -8.37352 11.979
head 15.8571 -1.98393 2.88444
rclavicle -1.74931e-014 6.36111e-014
rhumerus -24.9169 64.7853 -71.3043
rradius 88.1427
rwrist -91.4912
rhand 18.3001 2.8766
rfingers 7.12502
rthumb 42.9483 -21.3876
lclavicle -1.74931e-014 6.36111e-014
lhumerus -39.37 -81.4048 90.1302
lradius 81.0054
lwrist 55.4891
lhand 26.6472 16.6676
lfingers 7.12502
lthumb 50.669 37.5319
rfemur -57.1679 -32.435 12.605
rtibia 51.4829
rfoot -42.7754 -32.8041
rtoes 40.7654
lfemur -39.162 4.75071 -21.9077
ltibia 38.2519
lfoot -16.359 19.4772
ltoes 8.8058
98
root 3.16306 16.5352 6.41715 -49.9232 -72.5503 75.6746
lowerback -1.68612 -1.23038 1.6225
upperback -3.8703 -1.65586 5.10305
thorax -2.93736 -0.852229 4.38373
lowerneck -9.68747 0.391362 3.986
upperneck 38.2048 -8.25793 12.6883
head 15.7942 -1.91654 3.28878
rclavicle 1.11319e-014 -1.90833e-014
rhumerus -24.6064 64.1063 -67.8502
rradius 88.3195
rwrist -92.3154
rhand 20.1443 2.61138
rfingers 7.12502
rthumb 44.6695 -21.0172
lclavicle 1.11319e-014 -1.90833e-014
lhumerus -38.4271 -81.3667 87.8518
lradius 79.0954
lwrist 54.2962
lhand 26.7688 16.7987
lfingers 7.12502
lthumb 50.7799 37.6021
rfemur -57.0652 -33.1126 12.1336
rtibia 51.2684
rfoot -42.126 -32.5715
rtoes 40.8567
lfemur -38.7905 5.23264 -21.599
ltibia 37.8656
lfoot -9.51051 18.5171
ltoes 14.4017
99
root 3.14461 16.5762 6.30208 -49.6045 -72.0599 75.4278
lowerback -1.81445 -1.28824 1.80931
upperback -3.73811 -1.74768 5.4677
thorax -2.718 -0.903813 4.65359
lowerneck -8.6503 0.604564 2.55398
upperneck 37.2222 -7.84735 14.2361
head 15.1402 -1.84083 4.2344
rclavicle 7.95139e-015 6.99722e-014
rhumerus -23.4623 63.9542 -63.2863
rradius 88.5247
rwrist -93.3752
rhand 22.212 1.99563
rfingers 7.12502
rthumb 46.5899 -20.8492
lclavicle 7.95139e-015 6.99722e-014
lhumerus -37.5889 -80.4714 85.9209
lradius 76.8726
lwrist 52.8676
lhand 27.1361 17.3067
lfingers 7.12502
lthumb 51.1148 37.9239
rfemur -56.8736 -33.1858 12.1289
rtibia 50.9887
rfoot -42.2093 -32.9118
rtoes 40.7023
lfemur -38.6264 5.29967 -20.1733
ltibia 37.2905
lfoot -3.91808 17.0816
ltoes 30.0658
100
root 3.12764 16.618 6.19474 -49.5372 -71.4865 75.3482
lowerback -1.81999 -1.51295 1.93923
upperback -3.66371 -2.05668 5.97857
thorax -2.60547 -1.06195 5.1164
lowerneck -8.51362 0.910107 2.23717
upperneck 37.7478 -7.17031 13.6497
head 15.2545 -1.64323 4.17235
rclavicle -6.36111e-015 6.36111e-015
rhumerus -21.3976 64.0745 -58.4838
rradius 87.9468
rwrist -94.2832
rhand 24.1286 0.973603
rfingers 7.12502
rthumb 48.3599 -21.0695
lclavicle -6.36111e-015 6.36111e-015
lhumerus -38.064 -78.7793 85.4409
lradius 74.5596
lwrist 51.1161
lhand 27.3014 18.04
lfingers 7.12502
lthumb 51.2653 38.5722
rfemur -56.5121 -33.1726 11.8271
rtibia 50.6223
rfoot -42.4598 -33.5871
rtoes 40.223
lfemur -38.4679 4.31432 -18.3058
ltibia 36.6721
lfoot 4.45707 15.9018
ltoes 1.51672
101
root 3.09926 16.6648 6.06426 -52.429 -71.2709 77.6937
lowerback -1.19946 -1.75845 1.5075
upperback -3.39715 -2.36714 6.5512
thorax -2.6174 -1.20451 5.98477
lowerneck -7.34461 1.36174 1.97612
upperneck 37.5759 -5.97827 12.909
head 14.712 -1.30095 4.04481
rclavicle -1.90833e-014 1.20861e-013
rhumerus -18.9775 64.4883 -54.3744
rradius 86.5685
rwrist -94.4334
rhand 25.8896 0.244985
rfingers 7.12502
rthumb 49.9766 -20.99
lclavicle -1.90833e-014 1.20861e-013
lhumerus -39.7929 -76.3518 85.9223
lradius 72.2874
lwrist 48.8457
lhand 27.5901 18.2322
lfingers 7.12502
lthumb 51.5278 38.6142
rfemur -55.5418 -32.6526 11.3236
rtibia 50.168
rfoot -42.3818 -33.7415
rtoes 39.9732
lfemur -37.3695 4.04174 -16.5112
ltibia 36.1372
lfoot 6.02701 18.5009
ltoes 24.7023
102
root 3.08587 16.7094 5.97766 -52.5733 -70.3607 77.7024
lowerback -1.09482 -1.62128 2.09234
upperback -3.23769 -2.17253 5.98871
thorax -2.56863 -1.12039 5.05347
lowerneck -7.50638 1.4811 2.76283
upperneck 37.9319 -6.37128 13.4789
head 15.0088 -1.27765 4.12372
rclavicle -1.59028e-014 2.22639e-014
rhumerus -20.1853 62.5138 -53.6127
rradius 85.1747
rwrist -94.0268
rhand 27.8654 0.0650225
rfingers 7.12502
rthumb 51.778 -20.1716
lclavicle -1.59028e-014 2.22639e-014
lhumerus -38.2729 -76.8295 82.8335
lradius 69.9781
lwrist 46.8943
lhand 28.2148 17.826
lfingers 7.12502
lthumb 52.095 37.875
rfemur -55.1772 -33.5132 10.9261
rtibia 49.7113
rfoot -41.6065 -33.975
rtoes 39.5421
lfemur -37.2198 2.82793 -15.3036
ltibia 35.866
lfoot 1.31669 24.6569
ltoes 44.3244
103
root 3.07132 16.7581 5.87669 -53.0267 -69.6888 77.9389
lowerback -0.839815 -1.55663 2.75118
upperback -3.03854 -2.06912 5.52354
thorax -2.55181 -1.08294 4.19452
lowerneck -7.50697 1.68394 3.57351
upperneck 38.2424 -6.55834 13.8701
head 15.2192 -1.18957 4.14727
rclavicle 2.38542e-014 4.13472e-014
rhumerus -20.6569 61.138 -51.4898
rradius 84.3308
rwrist -93.918
rhand 29.7091 0.0942674
rfingers 7.12502
rthumb 53.4452 -19.1121
lclavicle 2.38542e-014 4.13472e-014
lhumerus -36.9045 -76.9641 79.7971
lradius 67.4603
lwrist 44.9941
lhand 28.6711 17.8513
lfingers 7.12502
lthumb 52.5084 37.6501
rfemur -54.4907 -33.5005 10.3656
rtibia 49.2894
rfoot -41.2511 -34.7398
rtoes 38.8543
lfemur -37.107 3.37385 -14.4702
ltibia 35.8338
lfoot -0.806672 30.098
ltoes 47.7485
104
root 3.06218 16.8039 5.76636 -53.3197 -69.2586 77.9862
lowerback -0.502135 -1.64482 3.09499
upperback -2.82243 -2.16993 5.47829
thorax -2.52774 -1.13923 3.96101
lowerneck -7.27335 1.90782 4.21227
upperneck 38.3793 -6.42194 13.8679
head 15.2248 -1.04371 4.05896
rclavicle -2.70347e-014 3.49861e-014
rhumerus -19.8601 60.4446 -48.1495
rradius 83.4559
rwrist -93.8402
rhand 30.5626 0.513274
rfingers 7.12502
rthumb 54.212 -18.1804
lclavicle -2.70347e-014 3.49861e-014
lhumerus -36.1552 -76.2788 77.7546
lradius 64.746
lwrist 42.8274
lhand 29.0003 17.9723
lfingers 7.12502
lthumb 52.8059 37.5868
rfemur -53.8443 -33.1791 10.068
rtibia 48.9886
rfoot -39.8163 -36.5964
rtoes 36.2687
lfemur -37.0153 4.33078 -13.3145
ltibia 35.9447
lfoot 2.12225 34.4213
ltoes 45.6379
105
root 3.05645 16.836 5.66885 -53.7734 -68.6433 78.2893
lowerback -0.241954 -2.04692 2.59522
upperback -2.66264 -2.70239 5.94003
thorax -2.44078 -1.39216 4.7398
lowerneck -6.6276 2.24578 4.40053
upperneck 38.399 -5.68467 13.3364
head 14.9755 -0.782941 3.88717
rclavicle -1.43125e-014 4.45278e-014
rhumerus -17.2524 60.5581 -43.2155
rradius 82.328
rwrist -93.4106
rhand 30.9105 0.743414
rfingers 7.12502
rthumb 54.5237 -17.7343
lclavicle -1.43125e-014 4.45278e-014
lhumerus -36.8882 -74.35 77.7878
lradius 61.6703
lwrist 40.208
lhand 29.5656 17.0224
lfingers 7.12502
lthumb 53.316 36.3126
rfemur -53.5287 -33.2642 9.709
rtibia 48.806
rfoot -39.5402 -37.1735
rtoes 35.8471
lfemur -37.0062 4.48949 -12.0533
ltibia 36.1929
lfoot 6.3308 36.4697
ltoes 41.165
106
root 3.05339 16.8579 5.58529 -54.7388 -67.9354 79.0435
lowerback 0.103091 -2.16548 2.77968
upperback -2.42227 -2.84182 5.70711
thorax -2.39785 -1.46283 4.40111
lowerneck -6.10311 2.43508 4.85282
upperneck 38.2062 -5.50149 13.5044
head 14.7561 -0.648339 3.88433
rclavicle -1.59028e-014 6.04305e-014
rhumerus -16.4075 59.4372 -40.4179
rradius 80.8024
rwrist -92.8575
rhand 31.5883 0.718953
rfingers 7.12502
rthumb 55.129 -17.326
lclavicle -1.59028e-014 6.04305e-014
lhumerus -36.3549 -73.9493 76.2076
lradius 58.7397
lwrist 38.1448
lhand 29.8612 16.4166
lfingers 7.12502
lthumb 53.5821 35.5333
rfemur -53.2048 -33.3628 9.04029
rtibia 48.6792
rfoot -39.6903 -37.1672
rtoes 36.3089
lfemur -36.7349 4.58729 -11.0351
ltibia 36.2035
lfoot 7.73177 37.6775
ltoes 43.8005
107
root 3.04784 16.8879 5.50498 -55.7615 -67.3705 79.8171
lowerback 0.52881 -2.26259 3.10221
upperback -2.16476 -2.9462 5.45186
thorax -2.39487 -1.51844 3.9667
lowerneck -5.78719 2.6502 5.12219
upperneck 38.1576 -5.45398 14.0217
head 14.6924 -0.549835 4.06089
rclavicle -2.38542e-014 -8.26944e-014
rhumerus -15.6448 58.0758 -37.7111
rradius 79.1558
rwrist -92.3924
rhand 32.3083 0.63195
rfingers 7.12502
rthumb 55.7693 -16.9352
lclavicle -2.38542e-014 -8.26944e-014
lhumerus -36.012 -74.0854 74.7337
lradius 55.9844
lwrist 36.9382
lhand 28.9907 17.3311
lfingers 7.12502
lthumb 52.7973 36.951
rfemur -52.7533 -33.0858 8.33993
rtibia 48.5878
rfoot -40.0099 -37.29
rtoes 36.852
lfemur -36.638 7.06955 -11.3667
ltibia 36.2171
lfoot 7.91993 39.0799
ltoes 47.1454
108
root 3.03828 16.9404 5.42494 -57.3624 -66.5371 81.2241
lowerback 0.972973 -2.3833 2.96483
upperback -1.93088 -3.08687 5.23266
thorax -2.40124 -1.58257 3.83209
lowerneck -5.36681 2.82665 5.28303
upperneck 38.0986 -5.23601 14.13
head 14.5556 -0.440516 4.0976
rclavicle 5.08889e-014 3.18055e-014
rhumerus -14.6628 57.0336 -34.4829
rradius 77.9661
rwrist -91.9878
rhand 32.4561 0.215945
rfingers 7.12502
rthumb 55.9005 -17.2507
lclavicle 5.08889e-014 3.18055e-014
lhumerus -35.5842 -73.5155 73.4366
lradius 52.9166
lwrist 35.3817
lhand 27.9884 18.5617
lfingers 7.12502
lthumb 51.8896 38.7327
rfemur -52.4003 -33.0735 7.42655
rtibia 48.4313
rfoot -39.0572 -38.0159
rtoes 36.1501
lfemur -35.645 2.38542 -7.89694
ltibia 35.7787
lfoot -1.50772 40.3593
ltoes 48.6637
109
root 3.02968 16.9663 5.34686 -59.1097 -65.537 82.8492
lowerback 1.40128 -2.75763 2.39295
upperback -1.69698 -3.57788 5.15251
thorax -2.34899 -1.81373 4.09703
lowerneck -4.33446 3.29828 5.11375
upperneck 37.5979 -4.40255 14.4495
head 14.012 -0.130466 4.31211
rclavicle 2.22639e-014 -1.59028e-014
rhumerus -12.3211 55.9132 -30.6985
rradius 76.2118
rwrist -90.9866
rhand 33.1105 -0.0924715
rfingers 7.12502
rthumb 56.4796 -17.104
lclavicle 2.22639e-014 -1.59028e-014
lhumerus -35.5337 -71.5257 72.3164
lradius 49.7353
lwrist 32.9411
lhand 31.166 14.0891
lfingers 7.12502
lthumb 54.7521 32.4056
rfemur -52.3026 -33.2789 6.35502
rtibia 48.3831
rfoot -37.7634 -38.6198
rtoes 35.0702
lfemur -34.9516 2.02789 -7.031
ltibia 35.2102
lfoot -4.25413 40.959
ltoes 49.0815
110
root 3.02493 17.0002 5.26364 -60.757 -64.5261 84.4975
lowerback 1.75924 -3.30964 1.60313
upperback -1.41491 -4.32241 5.17373
thorax -2.15999 -2.171 4.59342
lowerneck -3.44557 3.99319 4.79319
upperneck 37.2216 -3.25045 14.7392
head 13.5319 0.309163 4.57517
rclavicle -3.18055e-015 -4.45278e-014
rhumerus -9.11897 54.815 -26.3106
rradius 74.7404
rwrist -90.1929
rhand 33.5964 -0.210859
rfingers 7.12502
rthumb 56.908 -16.8733
lclavicle -3.18055e-015 -4.45278e-014
lhumerus -36.196 -69.1935 71.6151
lradius 47.2745
lwrist 30.0951
lhand 31.6549 13.4964
lfingers 7.12502
lthumb 55.1883 31.4979
rfemur -52.2943 -33.0318 5.13533
rtibia 48.435
rfoot -37.5105 -38.8897
rtoes 34.9553
lfemur -34.3219 1.11642 -5.91922
ltibia 34.4679
lfoot -2.75856 41.4436
ltoes 46.9541
111
root 3.02429 17.036 5.18626 -62.3303 -63.4521 86.2444
lowerback 1.99945 -3.83335 0.736002
upperback -1.22887 -5.03827 5.25351
thorax -1.97356 -2.51706 5.18994
lowerneck -3.59751 4.53292 4.94297
upperneck 38.0901 -2.38389 13.8514
head 13.8755 0.648505 4.34326
rclavicle 4.77083e-014 6.36111e-015
rhumerus -6.05034 53.4744 -21.8495
rradius 73.5403
rwrist -89.7316
rhand 33.9453 -0.546045
rfingers 7.12502
rthumb 57.2147 -16.9518
lclavicle 4.77083e-014 6.36111e-015
lhumerus -37.3684 -67.0359 71.4414
lradius 45.546
lwrist 27.1846
lhand 29.7328 17.0344
lfingers 7.12502
lthumb 53.4666 36.2268
rfemur -52.551 -32.2281 3.74219
rtibia 48.7542
rfoot -38.7973 -39.0576
rtoes 36.2756
lfemur -33.9335 -0.00205808 -4.88031
ltibia 33.9713
lfoot -16.1128 39.8735
ltoes 51.2257
